<?xml version="1.0" encoding="utf-8" standalone="no"?>
<!DOCTYPE svg PUBLIC "-//W3C//DTD SVG 1.1//EN"
  "http://www.w3.org/Graphics/SVG/1.1/DTD/svg11.dtd">
<svg xmlns:xlink="http://www.w3.org/1999/xlink" width="559.440203pt" height="318.8pt" viewBox="0 0 559.440203 318.8" xmlns="http://www.w3.org/2000/svg" version="1.1">
 <metadata>
  <rdf:RDF xmlns:dc="http://purl.org/dc/elements/1.1/" xmlns:cc="http://creativecommons.org/ns#" xmlns:rdf="http://www.w3.org/1999/02/22-rdf-syntax-ns#">
   <cc:Work>
    <dc:type rdf:resource="http://purl.org/dc/dcmitype/StillImage"/>
    <dc:date>2026-07-26T21:26:45.672613</dc:date>
    <dc:format>image/svg+xml</dc:format>
    <dc:creator>
     <cc:Agent>
      <dc:title>Matplotlib v3.11.0, https://matplotlib.org/</dc:title>
     </cc:Agent>
    </dc:creator>
   </cc:Work>
  </rdf:RDF>
 </metadata>
 <defs>
  <style type="text/css">*{stroke-linejoin: round; stroke-linecap: butt}</style>
 </defs>
 <g id="figure_1">
  <g id="patch_1">
   <path d="M 0 318.8
L 559.440203 318.8
L 559.440203 0
L 0 0
z
" style="fill: #ffffff"/>
  </g>
  <g id="axes_1">
   <g id="patch_2">
    <path d="M 120.828203 159.68
C 125.601859 159.68 130.180641 157.783406 133.556125 154.407922
C 136.93161 151.032438 138.828203 146.453656 138.828203 141.68
C 138.828203 136.906344 136.93161 132.327562 133.556125 128.952078
C 130.180641 125.576594 125.601859 123.68 120.828203 123.68
C 116.054547 123.68 111.475765 125.576594 108.100281 128.952078
C 104.724797 132.327562 102.828203 136.906344 102.828203 141.68
C 102.828203 146.453656 104.724797 151.032438 108.100281 154.407922
C 111.475765 157.783406 116.054547 159.68 120.828203 159.68
L 120.828203 159.68
z
" clip-path="url(#p00d91c3c58)" style="fill: none; stroke: #000000; stroke-width: 1.5; stroke-linejoin: miter"/>
   </g>
   <g id="patch_3">
    <path d="M 318.828203 278.48
C 323.601859 278.48 328.180641 276.583406 331.556125 273.207922
C 334.93161 269.832438 336.828203 265.253656 336.828203 260.48
C 336.828203 255.706344 334.93161 251.127562 331.556125 247.752078
C 328.180641 244.376594 323.601859 242.48 318.828203 242.48
C 314.054547 242.48 309.475765 244.376594 306.100281 247.752078
C 302.724797 251.127562 300.828203 255.706344 300.828203 260.48
C 300.828203 265.253656 302.724797 269.832438 306.100281 273.207922
C 309.475765 276.583406 314.054547 278.48 318.828203 278.48
L 318.828203 278.48
z
" clip-path="url(#p00d91c3c58)" style="fill: none; stroke: #000000; stroke-width: 1.5; stroke-linejoin: miter"/>
   </g>
   <g id="patch_4">
    <path d="M 534.828203 159.68
C 539.601859 159.68 544.180641 157.783406 547.556125 154.407922
C 550.93161 151.032438 552.828203 146.453656 552.828203 141.68
C 552.828203 136.906344 550.93161 132.327562 547.556125 128.952078
C 544.180641 125.576594 539.601859 123.68 534.828203 123.68
C 530.054547 123.68 525.475765 125.576594 522.100281 128.952078
C 518.724797 132.327562 516.828203 136.906344 516.828203 141.68
C 516.828203 146.453656 518.724797 151.032438 522.100281 154.407922
C 525.475765 157.783406 530.054547 159.68 534.828203 159.68
L 534.828203 159.68
z
" clip-path="url(#p00d91c3c58)" style="fill: none; stroke: #000000; stroke-width: 1.5; stroke-linejoin: miter"/>
   </g>
   <g id="line2d_1">
    <path d="M 120.828203 177.68
L 120.828203 159.68
L 120.828203 159.68
M 120.828203 123.68
L 120.828203 123.68
L 120.828203 105.68
" clip-path="url(#p00d91c3c58)" style="fill: none; stroke: #000000; stroke-width: 1.5; stroke-linecap: round"/>
   </g>
   <g id="line2d_2">
    <path d="M 124.428203 150.68
L 117.228203 150.68
" clip-path="url(#p00d91c3c58)" style="fill: none; stroke: #000000; stroke-width: 1.5; stroke-linecap: round"/>
   </g>
   <g id="line2d_3">
    <path d="M 120.828203 136.28
L 120.828203 129.08
" clip-path="url(#p00d91c3c58)" style="fill: none; stroke: #000000; stroke-width: 1.5; stroke-linecap: round"/>
   </g>
   <g id="line2d_4">
    <path d="M 124.428203 132.68
L 117.228203 132.68
" clip-path="url(#p00d91c3c58)" style="fill: none; stroke: #000000; stroke-width: 1.5; stroke-linecap: round"/>
   </g>
   <g id="line2d_5">
    <path d="M 120.828203 177.68
L 120.828203 192.08
L 111.828203 192.08
L 129.828203 192.08
M 114.528203 196.4
L 127.128203 196.4
M 119.028203 200.72
L 122.628203 200.72
" clip-path="url(#p00d91c3c58)" style="fill: none; stroke: #000000; stroke-width: 1.5; stroke-linecap: round"/>
   </g>
   <g id="line2d_6">
    <path d="M 120.828203 105.68
L 135.228203 105.68
L 149.628203 105.68
" clip-path="url(#p00d91c3c58)" style="fill: none; stroke: #000000; stroke-width: 1.5; stroke-linecap: round"/>
   </g>
   <g id="line2d_7">
    <path d="M 149.628203 105.68
L 185.628203 105.68
L 188.628203 96.68
L 194.628203 114.68
L 200.628203 96.68
L 206.628203 114.68
L 212.628203 96.68
L 218.628203 114.68
L 221.628203 105.68
L 257.628203 105.68
" clip-path="url(#p00d91c3c58)" style="fill: none; stroke: #000000; stroke-width: 1.5; stroke-linecap: round"/>
   </g>
   <g id="line2d_8">
    <path d="M 257.628203 105.68
L 257.628203 138.44
M 266.628203 138.44
L 248.628203 138.44
M 266.628203 144.92
L 248.628203 144.92
M 257.628203 144.92
L 257.628203 177.68
" clip-path="url(#p00d91c3c58)" style="fill: none; stroke: #000000; stroke-width: 1.5; stroke-linecap: round"/>
   </g>
   <g id="line2d_9">
    <path d="M 257.628203 177.68
L 257.628203 192.08
L 248.628203 192.08
L 266.628203 192.08
M 251.328203 196.4
L 263.928203 196.4
M 255.828203 200.72
L 259.428203 200.72
" clip-path="url(#p00d91c3c58)" style="fill: none; stroke: #000000; stroke-width: 1.5; stroke-linecap: round"/>
   </g>
   <g id="line2d_10">
    <path d="M 318.828203 128.18
L 318.828203 173.18
L 396.770489 128.18
L 318.828203 83.18
L 318.828203 128.18
M 396.770489 128.18
" clip-path="url(#p00d91c3c58)" style="fill: none; stroke: #000000; stroke-width: 1.5; stroke-linecap: round"/>
   </g>
   <g id="line2d_11">
    <path d="M 324.970989 150.68
L 332.170989 150.68
" clip-path="url(#p00d91c3c58)" style="fill: none; stroke: #000000; stroke-width: 1.5; stroke-linecap: round"/>
   </g>
   <g id="line2d_12">
    <path d="M 324.970989 105.68
L 332.170989 105.68
" clip-path="url(#p00d91c3c58)" style="fill: none; stroke: #000000; stroke-width: 1.5; stroke-linecap: round"/>
   </g>
   <g id="line2d_13">
    <path d="M 328.570989 102.08
L 328.570989 109.28
" clip-path="url(#p00d91c3c58)" style="fill: none; stroke: #000000; stroke-width: 1.5; stroke-linecap: round"/>
   </g>
   <g id="line2d_14">
    <path d="M 257.628203 105.68
L 288.228203 105.68
L 318.828203 105.68
" clip-path="url(#p00d91c3c58)" style="fill: none; stroke: #000000; stroke-width: 1.5; stroke-linecap: round"/>
   </g>
   <g id="line2d_15">
    <path d="M 396.770489 128.18
L 432.770489 128.18
L 468.770489 128.18
" clip-path="url(#p00d91c3c58)" style="fill: none; stroke: #000000; stroke-width: 1.5; stroke-linecap: round"/>
   </g>
   <g id="line2d_16">
    <path d="M 468.770489 128.18
L 468.770489 154.28
L 468.770489 180.38
" clip-path="url(#p00d91c3c58)" style="fill: none; stroke: #000000; stroke-width: 1.5; stroke-linecap: round"/>
   </g>
   <g id="line2d_17">
    <path d="M 468.770489 180.38
L 441.770489 180.38
L 438.770489 189.38
L 432.770489 171.38
L 426.770489 189.38
L 420.770489 171.38
L 414.770489 189.38
L 408.770489 171.38
L 405.770489 180.38
L 378.770489 180.38
" clip-path="url(#p00d91c3c58)" style="fill: none; stroke: #000000; stroke-width: 1.5; stroke-linecap: round"/>
   </g>
   <g id="line2d_18">
    <path d="M 378.770489 180.38
L 348.799346 180.29
L 318.828203 180.2
" clip-path="url(#p00d91c3c58)" style="fill: none; stroke: #000000; stroke-width: 1.5; stroke-linecap: round"/>
   </g>
   <g id="line2d_19">
    <path d="M 318.828203 180.2
L 318.828203 165.44
L 318.828203 150.68
" clip-path="url(#p00d91c3c58)" style="fill: none; stroke: #000000; stroke-width: 1.5; stroke-linecap: round"/>
   </g>
   <g id="line2d_20">
    <path d="M 318.828203 150.68
L 318.828203 172.28
L 327.828203 175.28
L 309.828203 181.28
L 327.828203 187.28
L 309.828203 193.28
L 327.828203 199.28
L 309.828203 205.28
L 318.828203 208.28
L 318.828203 229.88
" clip-path="url(#p00d91c3c58)" style="fill: none; stroke: #000000; stroke-width: 1.5; stroke-linecap: round"/>
   </g>
   <g id="line2d_21">
    <path d="M 318.828203 229.88
L 318.828203 242.48
L 318.828203 242.48
M 318.828203 278.48
L 318.828203 278.48
L 318.828203 291.08
" clip-path="url(#p00d91c3c58)" style="fill: none; stroke: #000000; stroke-width: 1.5; stroke-linecap: round"/>
   </g>
   <g id="line2d_22">
    <path d="M 315.228203 251.48
L 322.428203 251.48
" clip-path="url(#p00d91c3c58)" style="fill: none; stroke: #000000; stroke-width: 1.5; stroke-linecap: round"/>
   </g>
   <g id="line2d_23">
    <path d="M 318.828203 265.88
L 318.828203 273.08
" clip-path="url(#p00d91c3c58)" style="fill: none; stroke: #000000; stroke-width: 1.5; stroke-linecap: round"/>
   </g>
   <g id="line2d_24">
    <path d="M 315.228203 269.48
L 322.428203 269.48
" clip-path="url(#p00d91c3c58)" style="fill: none; stroke: #000000; stroke-width: 1.5; stroke-linecap: round"/>
   </g>
   <g id="line2d_25">
    <path d="M 318.828203 291.08
L 318.828203 305.48
L 309.828203 305.48
L 327.828203 305.48
M 312.528203 309.8
L 325.128203 309.8
M 317.028203 314.12
L 320.628203 314.12
" clip-path="url(#p00d91c3c58)" style="fill: none; stroke: #000000; stroke-width: 1.5; stroke-linecap: round"/>
   </g>
   <g id="line2d_26">
    <path d="M 318.828203 150.68
L 295.428203 150.68
L 272.028203 150.68
" clip-path="url(#p00d91c3c58)" style="fill: none; stroke: #000000; stroke-width: 1.5; stroke-linecap: round"/>
   </g>
   <g id="line2d_27">
    <path d="M 272.028203 150.68
L 272.028203 183.44
M 281.028203 183.44
L 263.028203 183.44
M 281.028203 189.92
L 263.028203 189.92
M 272.028203 189.92
L 272.028203 222.68
" clip-path="url(#p00d91c3c58)" style="fill: none; stroke: #000000; stroke-width: 1.5; stroke-linecap: round"/>
   </g>
   <g id="line2d_28">
    <path d="M 272.028203 222.68
L 272.028203 237.08
L 263.028203 237.08
L 281.028203 237.08
M 265.728203 241.4
L 278.328203 241.4
M 270.228203 245.72
L 273.828203 245.72
" clip-path="url(#p00d91c3c58)" style="fill: none; stroke: #000000; stroke-width: 1.5; stroke-linecap: round"/>
   </g>
   <g id="line2d_29">
    <path d="M 468.770489 128.18
L 468.770489 146.18
L 477.770489 149.18
L 459.770489 155.18
L 477.770489 161.18
L 459.770489 167.18
L 477.770489 173.18
L 459.770489 179.18
L 468.770489 182.18
L 468.770489 200.18
" clip-path="url(#p00d91c3c58)" style="fill: none; stroke: #000000; stroke-width: 1.5; stroke-linecap: round"/>
   </g>
   <g id="line2d_30">
    <path d="M 468.770489 200.18
L 468.770489 214.58
L 459.770489 214.58
L 477.770489 214.58
M 462.470489 218.9
L 475.070489 218.9
M 466.970489 223.22
L 470.570489 223.22
" clip-path="url(#p00d91c3c58)" style="fill: none; stroke: #000000; stroke-width: 1.5; stroke-linecap: round"/>
   </g>
   <g id="line2d_31">
    <path d="M 534.828203 177.68
L 534.828203 159.68
L 534.828203 159.68
M 534.828203 123.68
L 534.828203 123.68
L 534.828203 105.68
" clip-path="url(#p00d91c3c58)" style="fill: none; stroke: #000000; stroke-width: 1.5; stroke-linecap: round"/>
   </g>
   <g id="line2d_32">
    <path d="M 538.428203 150.68
L 531.228203 150.68
" clip-path="url(#p00d91c3c58)" style="fill: none; stroke: #000000; stroke-width: 1.5; stroke-linecap: round"/>
   </g>
   <g id="line2d_33">
    <path d="M 534.828203 136.28
L 534.828203 129.08
" clip-path="url(#p00d91c3c58)" style="fill: none; stroke: #000000; stroke-width: 1.5; stroke-linecap: round"/>
   </g>
   <g id="line2d_34">
    <path d="M 538.428203 132.68
L 531.228203 132.68
" clip-path="url(#p00d91c3c58)" style="fill: none; stroke: #000000; stroke-width: 1.5; stroke-linecap: round"/>
   </g>
   <g id="line2d_35">
    <path d="M 534.828203 177.68
L 534.828203 192.08
L 525.828203 192.08
L 543.828203 192.08
M 528.528203 196.4
L 541.128203 196.4
M 533.028203 200.72
L 536.628203 200.72
" clip-path="url(#p00d91c3c58)" style="fill: none; stroke: #000000; stroke-width: 1.5; stroke-linecap: round"/>
   </g>
   <g id="text_1">
    <!-- Vin -->
    <g transform="translate(112.173438 190.959141) scale(0.11 -0.11)">
     <defs>
      <path id="DejaVuSans-39" d="M 1831 0
L 50 4666
L 709 4666
L 2188 738
L 3669 4666
L 4325 4666
L 2547 0
L 1831 0
z
" transform="scale(0.015625)"/>
      <path id="DejaVuSans-4c" d="M 603 3500
L 1178 3500
L 1178 0
L 603 0
L 603 3500
z
M 603 4863
L 1178 4863
L 1178 4134
L 603 4134
L 603 4863
z
" transform="scale(0.015625)"/>
      <path id="DejaVuSans-51" d="M 3513 2113
L 3513 0
L 2938 0
L 2938 2094
Q 2938 2591 2744 2837
Q 2550 3084 2163 3084
Q 1697 3084 1428 2787
Q 1159 2491 1159 1978
L 1159 0
L 581 0
L 581 3500
L 1159 3500
L 1159 2956
Q 1366 3272 1645 3428
Q 1925 3584 2291 3584
Q 2894 3584 3203 3211
Q 3513 2838 3513 2113
z
" transform="scale(0.015625)"/>
     </defs>
     <use xlink:href="#DejaVuSans-39"/>
     <use xlink:href="#DejaVuSans-4c" transform="translate(66.203125 0)"/>
     <use xlink:href="#DejaVuSans-51" transform="translate(93.984375 0)"/>
    </g>
   </g>
   <g id="text_2">
    <!-- DC 2.5 V -->
    <g transform="translate(53.547656 185.183828) scale(0.11 -0.11)">
     <defs>
      <path id="DejaVuSans-27" d="M 1259 4147
L 1259 519
L 2022 519
Q 2988 519 3436 956
Q 3884 1394 3884 2338
Q 3884 3275 3436 3711
Q 2988 4147 2022 4147
L 1259 4147
z
M 628 4666
L 1925 4666
Q 3281 4666 3915 4102
Q 4550 3538 4550 2338
Q 4550 1131 3912 565
Q 3275 0 1925 0
L 628 0
L 628 4666
z
" transform="scale(0.015625)"/>
      <path id="DejaVuSans-26" d="M 4122 4306
L 4122 3641
Q 3803 3938 3442 4084
Q 3081 4231 2675 4231
Q 1875 4231 1450 3742
Q 1025 3253 1025 2328
Q 1025 1406 1450 917
Q 1875 428 2675 428
Q 3081 428 3442 575
Q 3803 722 4122 1019
L 4122 359
Q 3791 134 3420 21
Q 3050 -91 2638 -91
Q 1578 -91 968 557
Q 359 1206 359 2328
Q 359 3453 968 4101
Q 1578 4750 2638 4750
Q 3056 4750 3426 4639
Q 3797 4528 4122 4306
z
" transform="scale(0.015625)"/>
      <path id="DejaVuSans-3" transform="scale(0.015625)"/>
      <path id="DejaVuSans-15" d="M 1228 531
L 3431 531
L 3431 0
L 469 0
L 469 531
Q 828 903 1448 1529
Q 2069 2156 2228 2338
Q 2531 2678 2651 2914
Q 2772 3150 2772 3378
Q 2772 3750 2511 3984
Q 2250 4219 1831 4219
Q 1534 4219 1204 4116
Q 875 4013 500 3803
L 500 4441
Q 881 4594 1212 4672
Q 1544 4750 1819 4750
Q 2544 4750 2975 4387
Q 3406 4025 3406 3419
Q 3406 3131 3298 2873
Q 3191 2616 2906 2266
Q 2828 2175 2409 1742
Q 1991 1309 1228 531
z
" transform="scale(0.015625)"/>
      <path id="DejaVuSans-11" d="M 684 794
L 1344 794
L 1344 0
L 684 0
L 684 794
z
" transform="scale(0.015625)"/>
      <path id="DejaVuSans-18" d="M 691 4666
L 3169 4666
L 3169 4134
L 1269 4134
L 1269 2991
Q 1406 3038 1543 3061
Q 1681 3084 1819 3084
Q 2600 3084 3056 2656
Q 3513 2228 3513 1497
Q 3513 744 3044 326
Q 2575 -91 1722 -91
Q 1428 -91 1123 -41
Q 819 9 494 109
L 494 744
Q 775 591 1075 516
Q 1375 441 1709 441
Q 2250 441 2565 725
Q 2881 1009 2881 1497
Q 2881 1984 2565 2268
Q 2250 2553 1709 2553
Q 1456 2553 1204 2497
Q 953 2441 691 2322
L 691 4666
z
" transform="scale(0.015625)"/>
     </defs>
     <use xlink:href="#DejaVuSans-27"/>
     <use xlink:href="#DejaVuSans-26" transform="translate(77 0)"/>
     <use xlink:href="#DejaVuSans-3" transform="translate(146.828125 0)"/>
     <use xlink:href="#DejaVuSans-15" transform="translate(178.609375 0)"/>
     <use xlink:href="#DejaVuSans-11" transform="translate(242.234375 0)"/>
     <use xlink:href="#DejaVuSans-18" transform="translate(274.015625 0)"/>
     <use xlink:href="#DejaVuSans-3" transform="translate(337.640625 0)"/>
     <use xlink:href="#DejaVuSans-39" transform="translate(369.421875 0)"/>
    </g>
    <!-- AC 1 mV -->
    <g transform="translate(54.006563 196.183828) scale(0.11 -0.11)">
     <defs>
      <path id="DejaVuSans-24" d="M 2188 4044
L 1331 1722
L 3047 1722
L 2188 4044
z
M 1831 4666
L 2547 4666
L 4325 0
L 3669 0
L 3244 1197
L 1141 1197
L 716 0
L 50 0
L 1831 4666
z
" transform="scale(0.015625)"/>
      <path id="DejaVuSans-14" d="M 794 531
L 1825 531
L 1825 4091
L 703 3866
L 703 4441
L 1819 4666
L 2450 4666
L 2450 531
L 3481 531
L 3481 0
L 794 0
L 794 531
z
" transform="scale(0.015625)"/>
      <path id="DejaVuSans-50" d="M 3328 2828
Q 3544 3216 3844 3400
Q 4144 3584 4550 3584
Q 5097 3584 5394 3201
Q 5691 2819 5691 2113
L 5691 0
L 5113 0
L 5113 2094
Q 5113 2597 4934 2840
Q 4756 3084 4391 3084
Q 3944 3084 3684 2787
Q 3425 2491 3425 1978
L 3425 0
L 2847 0
L 2847 2094
Q 2847 2600 2669 2842
Q 2491 3084 2119 3084
Q 1678 3084 1418 2786
Q 1159 2488 1159 1978
L 1159 0
L 581 0
L 581 3500
L 1159 3500
L 1159 2956
Q 1356 3278 1631 3431
Q 1906 3584 2284 3584
Q 2666 3584 2933 3390
Q 3200 3197 3328 2828
z
" transform="scale(0.015625)"/>
     </defs>
     <use xlink:href="#DejaVuSans-24"/>
     <use xlink:href="#DejaVuSans-26" transform="translate(66.65625 0)"/>
     <use xlink:href="#DejaVuSans-3" transform="translate(136.484375 0)"/>
     <use xlink:href="#DejaVuSans-14" transform="translate(168.265625 0)"/>
     <use xlink:href="#DejaVuSans-3" transform="translate(231.890625 0)"/>
     <use xlink:href="#DejaVuSans-50" transform="translate(263.671875 0)"/>
     <use xlink:href="#DejaVuSans-39" transform="translate(361.078125 0)"/>
    </g>
   </g>
   <g id="text_3">
    <!-- Rinput -->
    <g transform="translate(185.659531 79.615313) scale(0.11 -0.11)">
     <defs>
      <path id="DejaVuSans-35" d="M 2841 2188
Q 3044 2119 3236 1894
Q 3428 1669 3622 1275
L 4263 0
L 3584 0
L 2988 1197
Q 2756 1666 2539 1819
Q 2322 1972 1947 1972
L 1259 1972
L 1259 0
L 628 0
L 628 4666
L 2053 4666
Q 2853 4666 3247 4331
Q 3641 3997 3641 3322
Q 3641 2881 3436 2590
Q 3231 2300 2841 2188
z
M 1259 4147
L 1259 2491
L 2053 2491
Q 2509 2491 2742 2702
Q 2975 2913 2975 3322
Q 2975 3731 2742 3939
Q 2509 4147 2053 4147
L 1259 4147
z
" transform="scale(0.015625)"/>
      <path id="DejaVuSans-53" d="M 1159 525
L 1159 -1331
L 581 -1331
L 581 3500
L 1159 3500
L 1159 2969
Q 1341 3281 1617 3432
Q 1894 3584 2278 3584
Q 2916 3584 3314 3078
Q 3713 2572 3713 1747
Q 3713 922 3314 415
Q 2916 -91 2278 -91
Q 1894 -91 1617 61
Q 1341 213 1159 525
z
M 3116 1747
Q 3116 2381 2855 2742
Q 2594 3103 2138 3103
Q 1681 3103 1420 2742
Q 1159 2381 1159 1747
Q 1159 1113 1420 752
Q 1681 391 2138 391
Q 2594 391 2855 752
Q 3116 1113 3116 1747
z
" transform="scale(0.015625)"/>
      <path id="DejaVuSans-58" d="M 544 1381
L 544 3500
L 1119 3500
L 1119 1403
Q 1119 906 1312 657
Q 1506 409 1894 409
Q 2359 409 2629 706
Q 2900 1003 2900 1516
L 2900 3500
L 3475 3500
L 3475 0
L 2900 0
L 2900 538
Q 2691 219 2414 64
Q 2138 -91 1772 -91
Q 1169 -91 856 284
Q 544 659 544 1381
z
M 1991 3584
L 1991 3584
z
" transform="scale(0.015625)"/>
      <path id="DejaVuSans-57" d="M 1172 4494
L 1172 3500
L 2356 3500
L 2356 3053
L 1172 3053
L 1172 1153
Q 1172 725 1289 603
Q 1406 481 1766 481
L 2356 481
L 2356 0
L 1766 0
Q 1100 0 847 248
Q 594 497 594 1153
L 594 3053
L 172 3053
L 172 3500
L 594 3500
L 594 4494
L 1172 4494
z
" transform="scale(0.015625)"/>
     </defs>
     <use xlink:href="#DejaVuSans-35"/>
     <use xlink:href="#DejaVuSans-4c" transform="translate(69.484375 0)"/>
     <use xlink:href="#DejaVuSans-51" transform="translate(97.265625 0)"/>
     <use xlink:href="#DejaVuSans-53" transform="translate(160.640625 0)"/>
     <use xlink:href="#DejaVuSans-58" transform="translate(224.125 0)"/>
     <use xlink:href="#DejaVuSans-57" transform="translate(287.5 0)"/>
    </g>
    <!-- 15.9kOhm -->
    <g transform="translate(175.024766 91.680938) scale(0.11 -0.11)">
     <defs>
      <path id="DejaVuSans-1c" d="M 703 97
L 703 672
Q 941 559 1184 500
Q 1428 441 1663 441
Q 2288 441 2617 861
Q 2947 1281 2994 2138
Q 2813 1869 2534 1725
Q 2256 1581 1919 1581
Q 1219 1581 811 2004
Q 403 2428 403 3163
Q 403 3881 828 4315
Q 1253 4750 1959 4750
Q 2769 4750 3195 4129
Q 3622 3509 3622 2328
Q 3622 1225 3098 567
Q 2575 -91 1691 -91
Q 1453 -91 1209 -44
Q 966 3 703 97
z
M 1959 2075
Q 2384 2075 2632 2365
Q 2881 2656 2881 3163
Q 2881 3666 2632 3958
Q 2384 4250 1959 4250
Q 1534 4250 1286 3958
Q 1038 3666 1038 3163
Q 1038 2656 1286 2365
Q 1534 2075 1959 2075
z
" transform="scale(0.015625)"/>
      <path id="DejaVuSans-4e" d="M 581 4863
L 1159 4863
L 1159 1991
L 2875 3500
L 3609 3500
L 1753 1863
L 3688 0
L 2938 0
L 1159 1709
L 1159 0
L 581 0
L 581 4863
z
" transform="scale(0.015625)"/>
      <path id="DejaVuSans-32" d="M 2522 4238
Q 1834 4238 1429 3725
Q 1025 3213 1025 2328
Q 1025 1447 1429 934
Q 1834 422 2522 422
Q 3209 422 3611 934
Q 4013 1447 4013 2328
Q 4013 3213 3611 3725
Q 3209 4238 2522 4238
z
M 2522 4750
Q 3503 4750 4090 4092
Q 4678 3434 4678 2328
Q 4678 1225 4090 567
Q 3503 -91 2522 -91
Q 1538 -91 948 565
Q 359 1222 359 2328
Q 359 3434 948 4092
Q 1538 4750 2522 4750
z
" transform="scale(0.015625)"/>
      <path id="DejaVuSans-4b" d="M 3513 2113
L 3513 0
L 2938 0
L 2938 2094
Q 2938 2591 2744 2837
Q 2550 3084 2163 3084
Q 1697 3084 1428 2787
Q 1159 2491 1159 1978
L 1159 0
L 581 0
L 581 4863
L 1159 4863
L 1159 2956
Q 1366 3272 1645 3428
Q 1925 3584 2291 3584
Q 2894 3584 3203 3211
Q 3513 2838 3513 2113
z
" transform="scale(0.015625)"/>
     </defs>
     <use xlink:href="#DejaVuSans-14"/>
     <use xlink:href="#DejaVuSans-18" transform="translate(63.625 0)"/>
     <use xlink:href="#DejaVuSans-11" transform="translate(127.25 0)"/>
     <use xlink:href="#DejaVuSans-1c" transform="translate(159.03125 0)"/>
     <use xlink:href="#DejaVuSans-4e" transform="translate(222.65625 0)"/>
     <use xlink:href="#DejaVuSans-32" transform="translate(280.5625 0)"/>
     <use xlink:href="#DejaVuSans-4b" transform="translate(359.28125 0)"/>
     <use xlink:href="#DejaVuSans-50" transform="translate(422.65625 0)"/>
    </g>
   </g>
   <g id="text_4">
    <!-- Cinput -->
    <g transform="translate(209.040625 148.215313) scale(0.11 -0.11)">
     <use xlink:href="#DejaVuSans-26"/>
     <use xlink:href="#DejaVuSans-4c" transform="translate(69.828125 0)"/>
     <use xlink:href="#DejaVuSans-51" transform="translate(97.609375 0)"/>
     <use xlink:href="#DejaVuSans-53" transform="translate(160.984375 0)"/>
     <use xlink:href="#DejaVuSans-58" transform="translate(224.46875 0)"/>
     <use xlink:href="#DejaVuSans-57" transform="translate(287.84375 0)"/>
    </g>
    <!-- 10nF -->
    <g transform="translate(213.380469 160.183828) scale(0.11 -0.11)">
     <defs>
      <path id="DejaVuSans-13" d="M 2034 4250
Q 1547 4250 1301 3770
Q 1056 3291 1056 2328
Q 1056 1369 1301 889
Q 1547 409 2034 409
Q 2525 409 2770 889
Q 3016 1369 3016 2328
Q 3016 3291 2770 3770
Q 2525 4250 2034 4250
z
M 2034 4750
Q 2819 4750 3233 4129
Q 3647 3509 3647 2328
Q 3647 1150 3233 529
Q 2819 -91 2034 -91
Q 1250 -91 836 529
Q 422 1150 422 2328
Q 422 3509 836 4129
Q 1250 4750 2034 4750
z
" transform="scale(0.015625)"/>
      <path id="DejaVuSans-29" d="M 628 4666
L 3309 4666
L 3309 4134
L 1259 4134
L 1259 2759
L 3109 2759
L 3109 2228
L 1259 2228
L 1259 0
L 628 0
L 628 4666
z
" transform="scale(0.015625)"/>
     </defs>
     <use xlink:href="#DejaVuSans-14"/>
     <use xlink:href="#DejaVuSans-13" transform="translate(63.625 0)"/>
     <use xlink:href="#DejaVuSans-51" transform="translate(127.25 0)"/>
     <use xlink:href="#DejaVuSans-29" transform="translate(190.625 0)"/>
    </g>
   </g>
   <g id="text_5">
    <!-- Eop: ideal VCVS, A = 100000 -->
    <g transform="translate(277.599893 77.115312) scale(0.11 -0.11)">
     <defs>
      <path id="DejaVuSans-28" d="M 628 4666
L 3578 4666
L 3578 4134
L 1259 4134
L 1259 2753
L 3481 2753
L 3481 2222
L 1259 2222
L 1259 531
L 3634 531
L 3634 0
L 628 0
L 628 4666
z
" transform="scale(0.015625)"/>
      <path id="DejaVuSans-52" d="M 1959 3097
Q 1497 3097 1228 2736
Q 959 2375 959 1747
Q 959 1119 1226 758
Q 1494 397 1959 397
Q 2419 397 2687 759
Q 2956 1122 2956 1747
Q 2956 2369 2687 2733
Q 2419 3097 1959 3097
z
M 1959 3584
Q 2709 3584 3137 3096
Q 3566 2609 3566 1747
Q 3566 888 3137 398
Q 2709 -91 1959 -91
Q 1206 -91 779 398
Q 353 888 353 1747
Q 353 2609 779 3096
Q 1206 3584 1959 3584
z
" transform="scale(0.015625)"/>
      <path id="DejaVuSans-1d" d="M 750 794
L 1409 794
L 1409 0
L 750 0
L 750 794
z
M 750 3309
L 1409 3309
L 1409 2516
L 750 2516
L 750 3309
z
" transform="scale(0.015625)"/>
      <path id="DejaVuSans-47" d="M 2906 2969
L 2906 4863
L 3481 4863
L 3481 0
L 2906 0
L 2906 525
Q 2725 213 2448 61
Q 2172 -91 1784 -91
Q 1150 -91 751 415
Q 353 922 353 1747
Q 353 2572 751 3078
Q 1150 3584 1784 3584
Q 2172 3584 2448 3432
Q 2725 3281 2906 2969
z
M 947 1747
Q 947 1113 1208 752
Q 1469 391 1925 391
Q 2381 391 2643 752
Q 2906 1113 2906 1747
Q 2906 2381 2643 2742
Q 2381 3103 1925 3103
Q 1469 3103 1208 2742
Q 947 2381 947 1747
z
" transform="scale(0.015625)"/>
      <path id="DejaVuSans-48" d="M 3597 1894
L 3597 1613
L 953 1613
Q 991 1019 1311 708
Q 1631 397 2203 397
Q 2534 397 2845 478
Q 3156 559 3463 722
L 3463 178
Q 3153 47 2828 -22
Q 2503 -91 2169 -91
Q 1331 -91 842 396
Q 353 884 353 1716
Q 353 2575 817 3079
Q 1281 3584 2069 3584
Q 2775 3584 3186 3129
Q 3597 2675 3597 1894
z
M 3022 2063
Q 3016 2534 2758 2815
Q 2500 3097 2075 3097
Q 1594 3097 1305 2825
Q 1016 2553 972 2059
L 3022 2063
z
" transform="scale(0.015625)"/>
      <path id="DejaVuSans-44" d="M 2194 1759
Q 1497 1759 1228 1600
Q 959 1441 959 1056
Q 959 750 1161 570
Q 1363 391 1709 391
Q 2188 391 2477 730
Q 2766 1069 2766 1631
L 2766 1759
L 2194 1759
z
M 3341 1997
L 3341 0
L 2766 0
L 2766 531
Q 2569 213 2275 61
Q 1981 -91 1556 -91
Q 1019 -91 701 211
Q 384 513 384 1019
Q 384 1609 779 1909
Q 1175 2209 1959 2209
L 2766 2209
L 2766 2266
Q 2766 2663 2505 2880
Q 2244 3097 1772 3097
Q 1472 3097 1187 3025
Q 903 2953 641 2809
L 641 3341
Q 956 3463 1253 3523
Q 1550 3584 1831 3584
Q 2591 3584 2966 3190
Q 3341 2797 3341 1997
z
" transform="scale(0.015625)"/>
      <path id="DejaVuSans-4f" d="M 603 4863
L 1178 4863
L 1178 0
L 603 0
L 603 4863
z
" transform="scale(0.015625)"/>
      <path id="DejaVuSans-36" d="M 3425 4513
L 3425 3897
Q 3066 4069 2747 4153
Q 2428 4238 2131 4238
Q 1616 4238 1336 4038
Q 1056 3838 1056 3469
Q 1056 3159 1242 3001
Q 1428 2844 1947 2747
L 2328 2669
Q 3034 2534 3370 2195
Q 3706 1856 3706 1288
Q 3706 609 3251 259
Q 2797 -91 1919 -91
Q 1588 -91 1214 -16
Q 841 59 441 206
L 441 856
Q 825 641 1194 531
Q 1563 422 1919 422
Q 2459 422 2753 634
Q 3047 847 3047 1241
Q 3047 1584 2836 1778
Q 2625 1972 2144 2069
L 1759 2144
Q 1053 2284 737 2584
Q 422 2884 422 3419
Q 422 4038 858 4394
Q 1294 4750 2059 4750
Q 2388 4750 2728 4690
Q 3069 4631 3425 4513
z
" transform="scale(0.015625)"/>
      <path id="DejaVuSans-f" d="M 750 794
L 1409 794
L 1409 256
L 897 -744
L 494 -744
L 750 256
L 750 794
z
" transform="scale(0.015625)"/>
      <path id="DejaVuSans-20" d="M 678 2906
L 4684 2906
L 4684 2381
L 678 2381
L 678 2906
z
M 678 1631
L 4684 1631
L 4684 1100
L 678 1100
L 678 1631
z
" transform="scale(0.015625)"/>
     </defs>
     <use xlink:href="#DejaVuSans-28"/>
     <use xlink:href="#DejaVuSans-52" transform="translate(63.1875 0)"/>
     <use xlink:href="#DejaVuSans-53" transform="translate(124.375 0)"/>
     <use xlink:href="#DejaVuSans-1d" transform="translate(187.859375 0)"/>
     <use xlink:href="#DejaVuSans-3" transform="translate(221.546875 0)"/>
     <use xlink:href="#DejaVuSans-4c" transform="translate(253.328125 0)"/>
     <use xlink:href="#DejaVuSans-47" transform="translate(281.109375 0)"/>
     <use xlink:href="#DejaVuSans-48" transform="translate(344.59375 0)"/>
     <use xlink:href="#DejaVuSans-44" transform="translate(406.125 0)"/>
     <use xlink:href="#DejaVuSans-4f" transform="translate(467.40625 0)"/>
     <use xlink:href="#DejaVuSans-3" transform="translate(495.1875 0)"/>
     <use xlink:href="#DejaVuSans-39" transform="translate(526.96875 0)"/>
     <use xlink:href="#DejaVuSans-26" transform="translate(595.375 0)"/>
     <use xlink:href="#DejaVuSans-39" transform="translate(665.203125 0)"/>
     <use xlink:href="#DejaVuSans-36" transform="translate(733.609375 0)"/>
     <use xlink:href="#DejaVuSans-f" transform="translate(797.09375 0)"/>
     <use xlink:href="#DejaVuSans-3" transform="translate(828.875 0)"/>
     <use xlink:href="#DejaVuSans-24" transform="translate(860.65625 0)"/>
     <use xlink:href="#DejaVuSans-3" transform="translate(929.0625 0)"/>
     <use xlink:href="#DejaVuSans-20" transform="translate(960.84375 0)"/>
     <use xlink:href="#DejaVuSans-3" transform="translate(1044.640625 0)"/>
     <use xlink:href="#DejaVuSans-14" transform="translate(1076.421875 0)"/>
     <use xlink:href="#DejaVuSans-13" transform="translate(1140.046875 0)"/>
     <use xlink:href="#DejaVuSans-13" transform="translate(1203.671875 0)"/>
     <use xlink:href="#DejaVuSans-13" transform="translate(1267.296875 0)"/>
     <use xlink:href="#DejaVuSans-13" transform="translate(1330.921875 0)"/>
     <use xlink:href="#DejaVuSans-13" transform="translate(1394.546875 0)"/>
    </g>
   </g>
   <g id="text_6">
    <!-- Rfeedback -->
    <g transform="translate(390.539219 163.680938) scale(0.11 -0.11)">
     <defs>
      <path id="DejaVuSans-49" d="M 2375 4863
L 2375 4384
L 1825 4384
Q 1516 4384 1395 4259
Q 1275 4134 1275 3809
L 1275 3500
L 2222 3500
L 2222 3053
L 1275 3053
L 1275 0
L 697 0
L 697 3053
L 147 3053
L 147 3500
L 697 3500
L 697 3744
Q 697 4328 969 4595
Q 1241 4863 1831 4863
L 2375 4863
z
" transform="scale(0.015625)"/>
      <path id="DejaVuSans-45" d="M 3116 1747
Q 3116 2381 2855 2742
Q 2594 3103 2138 3103
Q 1681 3103 1420 2742
Q 1159 2381 1159 1747
Q 1159 1113 1420 752
Q 1681 391 2138 391
Q 2594 391 2855 752
Q 3116 1113 3116 1747
z
M 1159 2969
Q 1341 3281 1617 3432
Q 1894 3584 2278 3584
Q 2916 3584 3314 3078
Q 3713 2572 3713 1747
Q 3713 922 3314 415
Q 2916 -91 2278 -91
Q 1894 -91 1617 61
Q 1341 213 1159 525
L 1159 0
L 581 0
L 581 4863
L 1159 4863
L 1159 2969
z
" transform="scale(0.015625)"/>
      <path id="DejaVuSans-46" d="M 3122 3366
L 3122 2828
Q 2878 2963 2633 3030
Q 2388 3097 2138 3097
Q 1578 3097 1268 2742
Q 959 2388 959 1747
Q 959 1106 1268 751
Q 1578 397 2138 397
Q 2388 397 2633 464
Q 2878 531 3122 666
L 3122 134
Q 2881 22 2623 -34
Q 2366 -91 2075 -91
Q 1284 -91 818 406
Q 353 903 353 1747
Q 353 2603 823 3093
Q 1294 3584 2113 3584
Q 2378 3584 2631 3529
Q 2884 3475 3122 3366
z
" transform="scale(0.015625)"/>
     </defs>
     <use xlink:href="#DejaVuSans-35"/>
     <use xlink:href="#DejaVuSans-49" transform="translate(69.484375 0)"/>
     <use xlink:href="#DejaVuSans-48" transform="translate(104.6875 0)"/>
     <use xlink:href="#DejaVuSans-48" transform="translate(166.21875 0)"/>
     <use xlink:href="#DejaVuSans-47" transform="translate(227.75 0)"/>
     <use xlink:href="#DejaVuSans-45" transform="translate(291.234375 0)"/>
     <use xlink:href="#DejaVuSans-44" transform="translate(354.71875 0)"/>
     <use xlink:href="#DejaVuSans-46" transform="translate(416 0)"/>
     <use xlink:href="#DejaVuSans-4e" transform="translate(470.984375 0)"/>
    </g>
    <!-- 40kOhm -->
    <g transform="translate(396.272109 174.680938) scale(0.11 -0.11)">
     <defs>
      <path id="DejaVuSans-17" d="M 2419 4116
L 825 1625
L 2419 1625
L 2419 4116
z
M 2253 4666
L 3047 4666
L 3047 1625
L 3713 1625
L 3713 1100
L 3047 1100
L 3047 0
L 2419 0
L 2419 1100
L 313 1100
L 313 1709
L 2253 4666
z
" transform="scale(0.015625)"/>
     </defs>
     <use xlink:href="#DejaVuSans-17"/>
     <use xlink:href="#DejaVuSans-13" transform="translate(63.625 0)"/>
     <use xlink:href="#DejaVuSans-4e" transform="translate(127.25 0)"/>
     <use xlink:href="#DejaVuSans-32" transform="translate(185.15625 0)"/>
     <use xlink:href="#DejaVuSans-4b" transform="translate(263.875 0)"/>
     <use xlink:href="#DejaVuSans-50" transform="translate(327.25 0)"/>
    </g>
   </g>
   <g id="text_7">
    <!-- Rground -->
    <g transform="translate(333.346875 191.415313) scale(0.11 -0.11)">
     <defs>
      <path id="DejaVuSans-4a" d="M 2906 1791
Q 2906 2416 2648 2759
Q 2391 3103 1925 3103
Q 1463 3103 1205 2759
Q 947 2416 947 1791
Q 947 1169 1205 825
Q 1463 481 1925 481
Q 2391 481 2648 825
Q 2906 1169 2906 1791
z
M 3481 434
Q 3481 -459 3084 -895
Q 2688 -1331 1869 -1331
Q 1566 -1331 1297 -1286
Q 1028 -1241 775 -1147
L 775 -588
Q 1028 -725 1275 -790
Q 1522 -856 1778 -856
Q 2344 -856 2625 -561
Q 2906 -266 2906 331
L 2906 616
Q 2728 306 2450 153
Q 2172 0 1784 0
Q 1141 0 747 490
Q 353 981 353 1791
Q 353 2603 747 3093
Q 1141 3584 1784 3584
Q 2172 3584 2450 3431
Q 2728 3278 2906 2969
L 2906 3500
L 3481 3500
L 3481 434
z
" transform="scale(0.015625)"/>
      <path id="DejaVuSans-55" d="M 2631 2963
Q 2534 3019 2420 3045
Q 2306 3072 2169 3072
Q 1681 3072 1420 2755
Q 1159 2438 1159 1844
L 1159 0
L 581 0
L 581 3500
L 1159 3500
L 1159 2956
Q 1341 3275 1631 3429
Q 1922 3584 2338 3584
Q 2397 3584 2469 3576
Q 2541 3569 2628 3553
L 2631 2963
z
" transform="scale(0.015625)"/>
     </defs>
     <use xlink:href="#DejaVuSans-35"/>
     <use xlink:href="#DejaVuSans-4a" transform="translate(69.484375 0)"/>
     <use xlink:href="#DejaVuSans-55" transform="translate(132.96875 0)"/>
     <use xlink:href="#DejaVuSans-52" transform="translate(171.875 0)"/>
     <use xlink:href="#DejaVuSans-58" transform="translate(233.0625 0)"/>
     <use xlink:href="#DejaVuSans-51" transform="translate(296.4375 0)"/>
     <use xlink:href="#DejaVuSans-47" transform="translate(359.8125 0)"/>
    </g>
    <!-- 10kOhm -->
    <g transform="translate(333.272109 203.480938) scale(0.11 -0.11)">
     <use xlink:href="#DejaVuSans-14"/>
     <use xlink:href="#DejaVuSans-13" transform="translate(63.625 0)"/>
     <use xlink:href="#DejaVuSans-4e" transform="translate(127.25 0)"/>
     <use xlink:href="#DejaVuSans-32" transform="translate(185.15625 0)"/>
     <use xlink:href="#DejaVuSans-4b" transform="translate(263.875 0)"/>
     <use xlink:href="#DejaVuSans-50" transform="translate(327.25 0)"/>
    </g>
   </g>
   <g id="text_8">
    <!-- Vref -->
    <g transform="translate(349.005625 264.480937) scale(0.11 -0.11)">
     <use xlink:href="#DejaVuSans-39"/>
     <use xlink:href="#DejaVuSans-55" transform="translate(68.40625 0)"/>
     <use xlink:href="#DejaVuSans-48" transform="translate(107.3125 0)"/>
     <use xlink:href="#DejaVuSans-49" transform="translate(168.84375 0)"/>
    </g>
    <!-- 2.5 V -->
    <g transform="translate(345.971172 275.383828) scale(0.11 -0.11)">
     <use xlink:href="#DejaVuSans-15"/>
     <use xlink:href="#DejaVuSans-11" transform="translate(63.625 0)"/>
     <use xlink:href="#DejaVuSans-18" transform="translate(95.40625 0)"/>
     <use xlink:href="#DejaVuSans-3" transform="translate(159.03125 0)"/>
     <use xlink:href="#DejaVuSans-39" transform="translate(190.8125 0)"/>
    </g>
   </g>
   <g id="text_9">
    <!-- Ccomp_minus -->
    <g transform="translate(202.8775 191.262344) scale(0.11 -0.11)">
     <defs>
      <path id="DejaVuSans-42" d="M 3263 -1063
L 3263 -1509
L -63 -1509
L -63 -1063
L 3263 -1063
z
" transform="scale(0.015625)"/>
      <path id="DejaVuSans-56" d="M 2834 3397
L 2834 2853
Q 2591 2978 2328 3040
Q 2066 3103 1784 3103
Q 1356 3103 1142 2972
Q 928 2841 928 2578
Q 928 2378 1081 2264
Q 1234 2150 1697 2047
L 1894 2003
Q 2506 1872 2764 1633
Q 3022 1394 3022 966
Q 3022 478 2636 193
Q 2250 -91 1575 -91
Q 1294 -91 989 -36
Q 684 19 347 128
L 347 722
Q 666 556 975 473
Q 1284 391 1588 391
Q 1994 391 2212 530
Q 2431 669 2431 922
Q 2431 1156 2273 1281
Q 2116 1406 1581 1522
L 1381 1569
Q 847 1681 609 1914
Q 372 2147 372 2553
Q 372 3047 722 3315
Q 1072 3584 1716 3584
Q 2034 3584 2315 3537
Q 2597 3491 2834 3397
z
" transform="scale(0.015625)"/>
     </defs>
     <use xlink:href="#DejaVuSans-26"/>
     <use xlink:href="#DejaVuSans-46" transform="translate(69.828125 0)"/>
     <use xlink:href="#DejaVuSans-52" transform="translate(124.8125 0)"/>
     <use xlink:href="#DejaVuSans-50" transform="translate(186 0)"/>
     <use xlink:href="#DejaVuSans-53" transform="translate(283.40625 0)"/>
     <use xlink:href="#DejaVuSans-42" transform="translate(346.890625 0)"/>
     <use xlink:href="#DejaVuSans-50" transform="translate(396.890625 0)"/>
     <use xlink:href="#DejaVuSans-4c" transform="translate(494.296875 0)"/>
     <use xlink:href="#DejaVuSans-51" transform="translate(522.078125 0)"/>
     <use xlink:href="#DejaVuSans-58" transform="translate(585.453125 0)"/>
     <use xlink:href="#DejaVuSans-56" transform="translate(648.828125 0)"/>
    </g>
    <!-- 1pF -->
    <g transform="translate(231.273828 202.246016) scale(0.11 -0.11)">
     <use xlink:href="#DejaVuSans-14"/>
     <use xlink:href="#DejaVuSans-53" transform="translate(63.625 0)"/>
     <use xlink:href="#DejaVuSans-29" transform="translate(127.109375 0)"/>
    </g>
   </g>
   <g id="text_10">
    <!-- Rload -->
    <g transform="translate(453.193458 112.180938) scale(0.11 -0.11)">
     <use xlink:href="#DejaVuSans-35"/>
     <use xlink:href="#DejaVuSans-4f" transform="translate(69.484375 0)"/>
     <use xlink:href="#DejaVuSans-52" transform="translate(97.265625 0)"/>
     <use xlink:href="#DejaVuSans-44" transform="translate(158.453125 0)"/>
     <use xlink:href="#DejaVuSans-47" transform="translate(219.734375 0)"/>
    </g>
    <!-- 10kOhm -->
    <g transform="translate(445.414396 123.180938) scale(0.11 -0.11)">
     <use xlink:href="#DejaVuSans-14"/>
     <use xlink:href="#DejaVuSans-13" transform="translate(63.625 0)"/>
     <use xlink:href="#DejaVuSans-4e" transform="translate(127.25 0)"/>
     <use xlink:href="#DejaVuSans-32" transform="translate(185.15625 0)"/>
     <use xlink:href="#DejaVuSans-4b" transform="translate(263.875 0)"/>
     <use xlink:href="#DejaVuSans-50" transform="translate(327.25 0)"/>
    </g>
   </g>
   <g id="text_11">
    <!-- Vsupply -->
    <g transform="translate(512.948516 88.615312) scale(0.11 -0.11)">
     <defs>
      <path id="DejaVuSans-5c" d="M 2059 -325
Q 1816 -950 1584 -1140
Q 1353 -1331 966 -1331
L 506 -1331
L 506 -850
L 844 -850
Q 1081 -850 1212 -737
Q 1344 -625 1503 -206
L 1606 56
L 191 3500
L 800 3500
L 1894 763
L 2988 3500
L 3597 3500
L 2059 -325
z
" transform="scale(0.015625)"/>
     </defs>
     <use xlink:href="#DejaVuSans-39"/>
     <use xlink:href="#DejaVuSans-56" transform="translate(68.40625 0)"/>
     <use xlink:href="#DejaVuSans-58" transform="translate(120.5 0)"/>
     <use xlink:href="#DejaVuSans-53" transform="translate(183.875 0)"/>
     <use xlink:href="#DejaVuSans-53" transform="translate(247.359375 0)"/>
     <use xlink:href="#DejaVuSans-4f" transform="translate(310.84375 0)"/>
     <use xlink:href="#DejaVuSans-5c" transform="translate(338.625 0)"/>
    </g>
    <!-- 5 V -->
    <g transform="translate(525.818516 100.511641) scale(0.11 -0.11)">
     <use xlink:href="#DejaVuSans-18"/>
     <use xlink:href="#DejaVuSans-3" transform="translate(63.625 0)"/>
     <use xlink:href="#DejaVuSans-39" transform="translate(95.40625 0)"/>
    </g>
   </g>
   <g id="text_12">
    <!-- LM358-class active signal conditioner -->
    <g transform="translate(13.976875 13.215312) scale(0.11 -0.11)">
     <defs>
      <path id="DejaVuSans-2f" d="M 628 4666
L 1259 4666
L 1259 531
L 3531 531
L 3531 0
L 628 0
L 628 4666
z
" transform="scale(0.015625)"/>
      <path id="DejaVuSans-30" d="M 628 4666
L 1569 4666
L 2759 1491
L 3956 4666
L 4897 4666
L 4897 0
L 4281 0
L 4281 4097
L 3078 897
L 2444 897
L 1241 4097
L 1241 0
L 628 0
L 628 4666
z
" transform="scale(0.015625)"/>
      <path id="DejaVuSans-16" d="M 2597 2516
Q 3050 2419 3304 2112
Q 3559 1806 3559 1356
Q 3559 666 3084 287
Q 2609 -91 1734 -91
Q 1441 -91 1130 -33
Q 819 25 488 141
L 488 750
Q 750 597 1062 519
Q 1375 441 1716 441
Q 2309 441 2620 675
Q 2931 909 2931 1356
Q 2931 1769 2642 2001
Q 2353 2234 1838 2234
L 1294 2234
L 1294 2753
L 1863 2753
Q 2328 2753 2575 2939
Q 2822 3125 2822 3475
Q 2822 3834 2567 4026
Q 2313 4219 1838 4219
Q 1578 4219 1281 4162
Q 984 4106 628 3988
L 628 4550
Q 988 4650 1302 4700
Q 1616 4750 1894 4750
Q 2613 4750 3031 4423
Q 3450 4097 3450 3541
Q 3450 3153 3228 2886
Q 3006 2619 2597 2516
z
" transform="scale(0.015625)"/>
      <path id="DejaVuSans-1b" d="M 2034 2216
Q 1584 2216 1326 1975
Q 1069 1734 1069 1313
Q 1069 891 1326 650
Q 1584 409 2034 409
Q 2484 409 2743 651
Q 3003 894 3003 1313
Q 3003 1734 2745 1975
Q 2488 2216 2034 2216
z
M 1403 2484
Q 997 2584 770 2862
Q 544 3141 544 3541
Q 544 4100 942 4425
Q 1341 4750 2034 4750
Q 2731 4750 3128 4425
Q 3525 4100 3525 3541
Q 3525 3141 3298 2862
Q 3072 2584 2669 2484
Q 3125 2378 3379 2068
Q 3634 1759 3634 1313
Q 3634 634 3220 271
Q 2806 -91 2034 -91
Q 1263 -91 848 271
Q 434 634 434 1313
Q 434 1759 690 2068
Q 947 2378 1403 2484
z
M 1172 3481
Q 1172 3119 1398 2916
Q 1625 2713 2034 2713
Q 2441 2713 2670 2916
Q 2900 3119 2900 3481
Q 2900 3844 2670 4047
Q 2441 4250 2034 4250
Q 1625 4250 1398 4047
Q 1172 3844 1172 3481
z
" transform="scale(0.015625)"/>
      <path id="DejaVuSans-10" d="M 313 2009
L 1997 2009
L 1997 1497
L 313 1497
L 313 2009
z
" transform="scale(0.015625)"/>
      <path id="DejaVuSans-59" d="M 191 3500
L 800 3500
L 1894 563
L 2988 3500
L 3597 3500
L 2284 0
L 1503 0
L 191 3500
z
" transform="scale(0.015625)"/>
     </defs>
     <use xlink:href="#DejaVuSans-2f"/>
     <use xlink:href="#DejaVuSans-30" transform="translate(55.71875 0)"/>
     <use xlink:href="#DejaVuSans-16" transform="translate(142 0)"/>
     <use xlink:href="#DejaVuSans-18" transform="translate(205.625 0)"/>
     <use xlink:href="#DejaVuSans-1b" transform="translate(269.25 0)"/>
     <use xlink:href="#DejaVuSans-10" transform="translate(332.875 0)"/>
     <use xlink:href="#DejaVuSans-46" transform="translate(368.953125 0)"/>
     <use xlink:href="#DejaVuSans-4f" transform="translate(423.9375 0)"/>
     <use xlink:href="#DejaVuSans-44" transform="translate(451.71875 0)"/>
     <use xlink:href="#DejaVuSans-56" transform="translate(513 0)"/>
     <use xlink:href="#DejaVuSans-56" transform="translate(565.09375 0)"/>
     <use xlink:href="#DejaVuSans-3" transform="translate(617.1875 0)"/>
     <use xlink:href="#DejaVuSans-44" transform="translate(648.96875 0)"/>
     <use xlink:href="#DejaVuSans-46" transform="translate(710.25 0)"/>
     <use xlink:href="#DejaVuSans-57" transform="translate(765.234375 0)"/>
     <use xlink:href="#DejaVuSans-4c" transform="translate(804.4375 0)"/>
     <use xlink:href="#DejaVuSans-59" transform="translate(832.21875 0)"/>
     <use xlink:href="#DejaVuSans-48" transform="translate(891.40625 0)"/>
     <use xlink:href="#DejaVuSans-3" transform="translate(952.9375 0)"/>
     <use xlink:href="#DejaVuSans-56" transform="translate(984.71875 0)"/>
     <use xlink:href="#DejaVuSans-4c" transform="translate(1036.8125 0)"/>
     <use xlink:href="#DejaVuSans-4a" transform="translate(1064.59375 0)"/>
     <use xlink:href="#DejaVuSans-51" transform="translate(1128.078125 0)"/>
     <use xlink:href="#DejaVuSans-44" transform="translate(1191.453125 0)"/>
     <use xlink:href="#DejaVuSans-4f" transform="translate(1252.734375 0)"/>
     <use xlink:href="#DejaVuSans-3" transform="translate(1280.515625 0)"/>
     <use xlink:href="#DejaVuSans-46" transform="translate(1312.296875 0)"/>
     <use xlink:href="#DejaVuSans-52" transform="translate(1367.28125 0)"/>
     <use xlink:href="#DejaVuSans-51" transform="translate(1428.46875 0)"/>
     <use xlink:href="#DejaVuSans-47" transform="translate(1491.84375 0)"/>
     <use xlink:href="#DejaVuSans-4c" transform="translate(1555.328125 0)"/>
     <use xlink:href="#DejaVuSans-57" transform="translate(1583.109375 0)"/>
     <use xlink:href="#DejaVuSans-4c" transform="translate(1622.3125 0)"/>
     <use xlink:href="#DejaVuSans-52" transform="translate(1650.09375 0)"/>
     <use xlink:href="#DejaVuSans-51" transform="translate(1711.28125 0)"/>
     <use xlink:href="#DejaVuSans-48" transform="translate(1774.65625 0)"/>
     <use xlink:href="#DejaVuSans-55" transform="translate(1836.1875 0)"/>
    </g>
    <!-- Generated from parsed SPICE connectivity -->
    <g transform="translate(0 24.215312) scale(0.11 -0.11)">
     <defs>
      <path id="DejaVuSans-2a" d="M 3809 666
L 3809 1919
L 2778 1919
L 2778 2438
L 4434 2438
L 4434 434
Q 4069 175 3628 42
Q 3188 -91 2688 -91
Q 1594 -91 976 548
Q 359 1188 359 2328
Q 359 3472 976 4111
Q 1594 4750 2688 4750
Q 3144 4750 3555 4637
Q 3966 4525 4313 4306
L 4313 3634
Q 3963 3931 3569 4081
Q 3175 4231 2741 4231
Q 1884 4231 1454 3753
Q 1025 3275 1025 2328
Q 1025 1384 1454 906
Q 1884 428 2741 428
Q 3075 428 3337 486
Q 3600 544 3809 666
z
" transform="scale(0.015625)"/>
      <path id="DejaVuSans-33" d="M 1259 4147
L 1259 2394
L 2053 2394
Q 2494 2394 2734 2622
Q 2975 2850 2975 3272
Q 2975 3691 2734 3919
Q 2494 4147 2053 4147
L 1259 4147
z
M 628 4666
L 2053 4666
Q 2838 4666 3239 4311
Q 3641 3956 3641 3272
Q 3641 2581 3239 2228
Q 2838 1875 2053 1875
L 1259 1875
L 1259 0
L 628 0
L 628 4666
z
" transform="scale(0.015625)"/>
      <path id="DejaVuSans-2c" d="M 628 4666
L 1259 4666
L 1259 0
L 628 0
L 628 4666
z
" transform="scale(0.015625)"/>
     </defs>
     <use xlink:href="#DejaVuSans-2a"/>
     <use xlink:href="#DejaVuSans-48" transform="translate(77.484375 0)"/>
     <use xlink:href="#DejaVuSans-51" transform="translate(139.015625 0)"/>
     <use xlink:href="#DejaVuSans-48" transform="translate(202.390625 0)"/>
     <use xlink:href="#DejaVuSans-55" transform="translate(263.921875 0)"/>
     <use xlink:href="#DejaVuSans-44" transform="translate(305.03125 0)"/>
     <use xlink:href="#DejaVuSans-57" transform="translate(366.3125 0)"/>
     <use xlink:href="#DejaVuSans-48" transform="translate(405.515625 0)"/>
     <use xlink:href="#DejaVuSans-47" transform="translate(467.046875 0)"/>
     <use xlink:href="#DejaVuSans-3" transform="translate(530.53125 0)"/>
     <use xlink:href="#DejaVuSans-49" transform="translate(562.3125 0)"/>
     <use xlink:href="#DejaVuSans-55" transform="translate(597.515625 0)"/>
     <use xlink:href="#DejaVuSans-52" transform="translate(636.421875 0)"/>
     <use xlink:href="#DejaVuSans-50" transform="translate(697.609375 0)"/>
     <use xlink:href="#DejaVuSans-3" transform="translate(795.015625 0)"/>
     <use xlink:href="#DejaVuSans-53" transform="translate(826.796875 0)"/>
     <use xlink:href="#DejaVuSans-44" transform="translate(890.28125 0)"/>
     <use xlink:href="#DejaVuSans-55" transform="translate(951.5625 0)"/>
     <use xlink:href="#DejaVuSans-56" transform="translate(992.671875 0)"/>
     <use xlink:href="#DejaVuSans-48" transform="translate(1044.765625 0)"/>
     <use xlink:href="#DejaVuSans-47" transform="translate(1106.296875 0)"/>
     <use xlink:href="#DejaVuSans-3" transform="translate(1169.78125 0)"/>
     <use xlink:href="#DejaVuSans-36" transform="translate(1201.5625 0)"/>
     <use xlink:href="#DejaVuSans-33" transform="translate(1265.046875 0)"/>
     <use xlink:href="#DejaVuSans-2c" transform="translate(1325.34375 0)"/>
     <use xlink:href="#DejaVuSans-26" transform="translate(1354.84375 0)"/>
     <use xlink:href="#DejaVuSans-28" transform="translate(1424.671875 0)"/>
     <use xlink:href="#DejaVuSans-3" transform="translate(1487.859375 0)"/>
     <use xlink:href="#DejaVuSans-46" transform="translate(1519.640625 0)"/>
     <use xlink:href="#DejaVuSans-52" transform="translate(1574.625 0)"/>
     <use xlink:href="#DejaVuSans-51" transform="translate(1635.8125 0)"/>
     <use xlink:href="#DejaVuSans-51" transform="translate(1699.1875 0)"/>
     <use xlink:href="#DejaVuSans-48" transform="translate(1762.5625 0)"/>
     <use xlink:href="#DejaVuSans-46" transform="translate(1824.09375 0)"/>
     <use xlink:href="#DejaVuSans-57" transform="translate(1879.078125 0)"/>
     <use xlink:href="#DejaVuSans-4c" transform="translate(1918.28125 0)"/>
     <use xlink:href="#DejaVuSans-59" transform="translate(1946.0625 0)"/>
     <use xlink:href="#DejaVuSans-4c" transform="translate(2005.25 0)"/>
     <use xlink:href="#DejaVuSans-57" transform="translate(2033.03125 0)"/>
     <use xlink:href="#DejaVuSans-5c" transform="translate(2072.234375 0)"/>
    </g>
   </g>
   <g id="patch_5">
    <path d="M 257.628203 108.38
C 258.344251 108.38 259.031069 108.095511 259.537391 107.589188
C 260.043714 107.082866 260.328203 106.396048 260.328203 105.68
C 260.328203 104.963952 260.043714 104.277134 259.537391 103.770812
C 259.031069 103.264489 258.344251 102.98 257.628203 102.98
C 256.912155 102.98 256.225337 103.264489 255.719015 103.770812
C 255.212692 104.277134 254.928203 104.963952 254.928203 105.68
C 254.928203 106.396048 255.212692 107.082866 255.719015 107.589188
C 256.225337 108.095511 256.912155 108.38 257.628203 108.38
z
" clip-path="url(#p00d91c3c58)" style="stroke: #000000; stroke-width: 1.5; stroke-linejoin: miter"/>
   </g>
   <g id="text_13">
    <!-- Vplus -->
    <g transform="translate(242.495469 120.515312) scale(0.11 -0.11)">
     <use xlink:href="#DejaVuSans-39"/>
     <use xlink:href="#DejaVuSans-53" transform="translate(68.40625 0)"/>
     <use xlink:href="#DejaVuSans-4f" transform="translate(131.890625 0)"/>
     <use xlink:href="#DejaVuSans-58" transform="translate(159.671875 0)"/>
     <use xlink:href="#DejaVuSans-56" transform="translate(223.046875 0)"/>
    </g>
   </g>
   <g id="patch_6">
    <path d="M 318.828203 153.38
C 319.544251 153.38 320.231069 153.095511 320.737391 152.589188
C 321.243714 152.082866 321.528203 151.396048 321.528203 150.68
C 321.528203 149.963952 321.243714 149.277134 320.737391 148.770812
C 320.231069 148.264489 319.544251 147.98 318.828203 147.98
C 318.112155 147.98 317.425337 148.264489 316.919015 148.770812
C 316.412692 149.277134 316.128203 149.963952 316.128203 150.68
C 316.128203 151.396048 316.412692 152.082866 316.919015 152.589188
C 317.425337 153.095511 318.112155 153.38 318.828203 153.38
z
" clip-path="url(#p00d91c3c58)" style="stroke: #000000; stroke-width: 1.5; stroke-linejoin: miter"/>
   </g>
   <g id="text_14">
    <!-- Vminus -->
    <g transform="translate(271.560078 154.780937) scale(0.11 -0.11)">
     <use xlink:href="#DejaVuSans-39"/>
     <use xlink:href="#DejaVuSans-50" transform="translate(68.40625 0)"/>
     <use xlink:href="#DejaVuSans-4c" transform="translate(165.8125 0)"/>
     <use xlink:href="#DejaVuSans-51" transform="translate(193.59375 0)"/>
     <use xlink:href="#DejaVuSans-58" transform="translate(256.96875 0)"/>
     <use xlink:href="#DejaVuSans-56" transform="translate(320.34375 0)"/>
    </g>
   </g>
   <g id="patch_7">
    <path d="M 468.770489 130.88
C 469.486538 130.88 470.173355 130.595511 470.679678 130.089188
C 471.186 129.582866 471.470489 128.896048 471.470489 128.18
C 471.470489 127.463952 471.186 126.777134 470.679678 126.270812
C 470.173355 125.764489 469.486538 125.48 468.770489 125.48
C 468.054441 125.48 467.367624 125.764489 466.861301 126.270812
C 466.354978 126.777134 466.070489 127.463952 466.070489 128.18
C 466.070489 128.896048 466.354978 129.582866 466.861301 130.089188
C 467.367624 130.595511 468.054441 130.88 468.770489 130.88
z
" clip-path="url(#p00d91c3c58)" style="stroke: #000000; stroke-width: 1.5; stroke-linejoin: miter"/>
   </g>
   <g id="text_15">
    <!-- Vout -->
    <g transform="translate(475.070489 132.111641) scale(0.11 -0.11)">
     <use xlink:href="#DejaVuSans-39"/>
     <use xlink:href="#DejaVuSans-52" transform="translate(60.640625 0)"/>
     <use xlink:href="#DejaVuSans-58" transform="translate(121.828125 0)"/>
     <use xlink:href="#DejaVuSans-57" transform="translate(185.203125 0)"/>
    </g>
   </g>
  </g>
 </g>
 <defs>
  <clipPath id="p00d91c3c58">
   <rect x="5.958203" y="0" width="553.482" height="318.8"/>
  </clipPath>
 </defs>
</svg>
